<?xml version="1.0" encoding="UTF-8"?>
<svg viewBox="0 0 50.915 50.915"
  xmlns="http://www.w3.org/2000/svg">
  <defs>
    <style>.a{opacity:0.46;}.b{fill:#0fd9e7;}</style>
  </defs>
  <g class="a">
    <path class="b" transform="translate(-728.57 -136.84)" d="m765.56 187.76h-23.065a13.941 13.941 0 0 1-13.926-13.926v-23.065a13.831 13.831 0 0 1 2.681-8.216 1.809 1.809 0 0 1 2.92 2.135 10.23 10.23 0 0 0-1.985 6.081v23.065a10.321 10.321 0 0 0 10.31 10.31h23.065a10.32 10.32 0 0 0 10.308-10.31v-23.065a10.318 10.318 0 0 0-10.308-10.308h-23.065a10.2 10.2 0 0 0-4.761 1.161 1.808 1.808 0 1 1-1.672-3.206 13.979 13.979 0 0 1 6.433-1.571h23.065a13.94 13.94 0 0 1 13.924 13.924v23.065a13.941 13.941 0 0 1-13.924 13.926z"/>
  </g>
  <g class="a" transform="translate(15.958 16.572)">
    <path class="b" transform="translate(-737.39 -146.01)" d="m749.41 163.5-11.182-7.1a1.788 1.788 0 0 1 0-3.021l11.181-7.093a1.79 1.79 0 0 1 2.748 1.512v14.186a1.789 1.789 0 0 1-2.747 1.516z"/>
  </g>
</svg>
