<?xml version="1.0" encoding="UTF-8"?>
<svg viewBox="0 0 97.607 344.17"
  xmlns="http://www.w3.org/2000/svg">
  <defs>
    <style>.a{fill:#60d5e3;}.b{fill:#ee7d4b;}</style>
  </defs>
  <g transform="translate(-782 -1661.1)">
    <path class="a" d="m845.11 1899.7c-0.245 0.586-0.488 1.172-0.738 1.758q3.839 6.852 7.6 13.93c15.618 29.493 24.391 59.715 26.128 89.861h1.5c-1.738-30.392-10.571-60.851-26.306-90.564q-4.038-7.632-8.184-14.985z"/>
    <path class="a" d="m843.44 1899.8c0.246-0.585 0.495-1.168 0.736-1.753-11.12-19.66-22.653-38-33.89-55.852-9.323-14.815-18.947-30.121-28.288-46.091v2.973c8.944 15.192 18.117 29.779 27.015 43.92 11.419 18.145 23.147 36.787 34.427 56.803z"/>
    <path class="b" d="m857.24 1776.1c-10.259-44.289-36.267-84.019-75.239-115.01v1.924c38.186 30.671 63.679 69.829 73.778 113.43 9.146 39.486 5.109 81.118-11.6 121.62-0.241 0.585-0.49 1.168-0.736 1.753q-4.161 9.861-9.312 19.618c-11.785 22.254-24.285 42.619-36.2 61.637q0.507 0.6 1.026 1.2c12.007-19.153 24.615-39.676 36.505-62.129q4.912-9.274 8.917-18.662c0.25-0.586 0.493-1.172 0.738-1.758 17.2-41.136 21.423-83.469 12.123-123.62z"/>
  </g>
</svg>
