<?xml version="1.0" encoding="UTF-8"?>
<svg viewBox="0 0 176 270"
  xmlns="http://www.w3.org/2000/svg">
  <path d="m74.145 185.95c-0.0037 0.637-0.0093 1.273-0.0083 1.912-4.2058 3.158-8.4172 6.395-12.634 9.712-26.308 20.754-46.507 44.944-60.1 71.909l-1.402-0.606c13.692-27.191 34.042-51.575 60.546-72.483 4.5362-3.581 9.0693-7.062 13.599-10.444z" fill="#60D5E3"/>
  <path d="m75.68 186.73c3e-3 -0.648 0.0023-1.295 0.01-1.942 18.518-13.816 36.893-26.228 54.79-38.305 14.851-10.024 30.185-20.383 45.52-31.479v1.5c-14.643 10.532-30.461 21.684-44.635 31.252-18.189 12.277-36.872 24.891-55.685 38.974z" fill="#60D5E3"/>
  <path d="m110.36 56.507c21.636-28.007 38.136-40.507 65.636-56.007v2c-18.5 11-38 21-64.405 54.909-24.226 32.542-36.984 72.384-37.448 116.31-7e-3 0.634-0.0058 1.27-0.0081 1.906-0.0176 7.155 0.287 14.412 0.9139 21.771 2.1786 25.189 9.447 71.602 9.447 71.602h-1.4999s-7.2745-46.076-9.4722-71.491c-0.6058-6.998-0.9139-13.91-0.9244-20.733-9e-4 -0.639 0.0046-1.275 0.0083-1.912 0.2575-44.709 13.119-85.27 37.752-118.36z" fill="#EE7D4B"/>
</svg>
